<svg width="24" height="24" viewBox="0 0 24 24" fill="none" xmlns="http://www.w3.org/2000/svg">
<path d="M18 2C20.2091 2 22 3.79086 22 6V18C22 20.2091 20.2091 22 18 22H6C3.79086 22 2 20.2091 2 18V6C2 3.79086 3.79086 2 6 2H18ZM6.62598 10.1016C6.53686 10.1016 6.44925 10.1254 6.37207 10.1699C6.29476 10.2146 6.23016 10.2791 6.18555 10.3564C6.14093 10.4339 6.11807 10.522 6.11816 10.6113V15.416C6.11818 15.5053 6.14092 15.5936 6.18555 15.6709C6.2302 15.7482 6.29475 15.8128 6.37207 15.8574L10.5264 18.2578C10.6037 18.3025 10.692 18.3262 10.7812 18.3262C10.8704 18.3261 10.9579 18.3024 11.0352 18.2578C11.1124 18.2132 11.177 18.1494 11.2217 18.0723C11.2663 17.9949 11.29 17.9067 11.29 17.8174V16.5137C11.29 16.4242 11.2665 16.3362 11.2217 16.2588C11.1768 16.1813 11.1119 16.1168 11.0342 16.0723L8.51465 14.627C8.43707 14.5825 8.37203 14.5188 8.32715 14.4414C8.28226 14.3639 8.25879 14.2751 8.25879 14.1855V11.2568C8.25888 11.1675 8.23507 11.0794 8.19043 11.002C8.14577 10.9245 8.08132 10.8601 8.00391 10.8154L6.88086 10.1699C6.80349 10.1253 6.71531 10.1015 6.62598 10.1016ZM17.4375 10.1016C17.3482 10.1015 17.26 10.1253 17.1826 10.1699L16.0596 10.8154C15.9822 10.8601 15.9177 10.9245 15.873 11.002C15.8284 11.0794 15.8046 11.1675 15.8047 11.2568V14.1855C15.8047 14.2751 15.7812 14.3639 15.7363 14.4414C15.6914 14.5188 15.6264 14.5825 15.5488 14.627L13.0293 16.0723C12.9516 16.1168 12.8867 16.1813 12.8418 16.2588C12.797 16.3362 12.7734 16.4242 12.7734 16.5137V17.8174C12.7735 17.9067 12.7971 17.9949 12.8418 18.0723C12.8864 18.1494 12.9511 18.2132 13.0283 18.2578C13.1056 18.3024 13.193 18.3261 13.2822 18.3262C13.3715 18.3262 13.4598 18.3025 13.5371 18.2578L17.6914 15.8574C17.7687 15.8128 17.8333 15.7482 17.8779 15.6709C17.9226 15.5936 17.9453 15.5053 17.9453 15.416V10.6113C17.9454 10.522 17.9225 10.4339 17.8779 10.3564C17.8333 10.2791 17.7687 10.2146 17.6914 10.1699C17.6142 10.1254 17.5266 10.1016 17.4375 10.1016ZM11.9697 9.85742C11.8804 9.85742 11.7922 9.88015 11.7148 9.9248L9.91309 10.9668C9.83607 11.0114 9.77209 11.0753 9.72754 11.1523C9.68289 11.2297 9.6592 11.3179 9.65918 11.4072V13.4912C9.6593 13.5803 9.68296 13.668 9.72754 13.7451C9.77209 13.8222 9.83607 13.8861 9.91309 13.9307L11.7148 14.9727C11.7922 15.0173 11.8804 15.041 11.9697 15.041C12.0589 15.041 12.1464 15.0172 12.2236 14.9727L14.0254 13.9307C14.1027 13.8861 14.1673 13.8224 14.2119 13.7451C14.2565 13.668 14.2801 13.5803 14.2803 13.4912V11.4072C14.2803 11.3179 14.2566 11.2297 14.2119 11.1523C14.1673 11.0751 14.1026 11.0114 14.0254 10.9668L12.2236 9.9248C12.1464 9.88034 12.0588 9.85743 11.9697 9.85742ZM12.0322 5.5293C11.9429 5.5293 11.8547 5.55301 11.7773 5.59766L7.5957 8.0127C7.51871 8.05718 7.45476 8.12132 7.41016 8.19824C7.36562 8.2751 7.34218 8.36235 7.3418 8.45117C7.3415 8.54006 7.36421 8.62785 7.4082 8.70508C7.45229 8.78237 7.51603 8.84754 7.59277 8.89258L8.73438 9.56152C8.81197 9.60701 8.90029 9.63158 8.99023 9.63184C9.08 9.63208 9.16835 9.60835 9.24609 9.56348L11.7773 8.09863C11.8546 8.05405 11.943 8.03125 12.0322 8.03125C12.1213 8.03133 12.209 8.05414 12.2861 8.09863L14.8184 9.56348C14.8961 9.60827 14.9845 9.63116 15.0742 9.63086C15.1641 9.63055 15.2525 9.60701 15.3301 9.56152L16.4707 8.89258C16.5473 8.84766 16.6112 8.78314 16.6553 8.70605C16.6993 8.62886 16.7229 8.54102 16.7227 8.45215C16.7224 8.36316 16.6989 8.27524 16.6543 8.19824C16.6097 8.12123 16.5449 8.0572 16.4678 8.0127L12.2861 5.59766C12.2089 5.55308 12.1214 5.52938 12.0322 5.5293Z" fill="#DD5555"/>
</svg>
