<svg width="402" height="112" viewBox="0 0 402 112" fill="none" xmlns="http://www.w3.org/2000/svg">
<path fill-rule="evenodd" clip-rule="evenodd" d="M20 10.7506C8.95431 10.7506 0 19.7049 0 30.7506V80.7506C0 91.7963 8.9543 100.751 20 100.751H70C81.0457 100.751 90 91.7963 90 80.7506V30.7506C90 19.7049 81.0457 10.7506 70 10.7506H20ZM43.8354 37.45L31.3877 44.5426C31.0047 44.7609 30.5698 44.8752 30.1273 44.874C29.6848 44.8727 29.2506 44.7559 28.8689 44.5354L23.2538 41.2921C22.8764 41.0739 22.5636 40.762 22.3468 40.3875C22.13 40.013 22.0166 39.589 22.0181 39.1579C22.0196 38.7268 22.1358 38.3036 22.3552 37.9306C22.5746 37.5575 22.8895 37.2477 23.2684 37.032L43.8354 25.3302C44.2158 25.1139 44.6473 25 45.0865 25C45.5257 25 45.9572 25.1139 46.3375 25.3302L66.9056 37.032C67.2848 37.2476 67.5999 37.5575 67.8194 37.9306C68.039 38.3038 68.1553 38.7271 68.1568 39.1584C68.1583 39.5897 68.0449 40.0139 67.8279 40.3884C67.6108 40.763 67.2979 41.075 66.9202 41.2931L61.3072 44.5344C60.9257 44.7548 60.4917 44.8717 60.0495 44.8732C59.6072 44.8746 59.1724 44.7605 58.7895 44.5426L46.3375 37.45C45.9572 37.2337 45.5257 37.1198 45.0865 37.1198C44.6473 37.1198 44.2158 37.2337 43.8354 37.45ZM63.6433 66.9408V52.7475C63.6428 52.3144 63.7582 51.8888 63.9778 51.5136C64.1975 51.1384 64.5136 50.8268 64.8943 50.6103L70.4197 47.484C70.8003 47.2676 71.232 47.1537 71.6714 47.1538C72.1109 47.1539 72.5425 47.268 72.923 47.4847C73.3034 47.7013 73.6192 48.0129 73.8386 48.3879C74.058 48.763 74.1733 49.1884 74.1728 49.6213V72.9026C74.1728 73.3352 74.0571 73.7602 73.8375 74.1348C73.6179 74.5094 73.3021 74.8205 72.9218 75.0368L52.4882 86.6698C52.1079 86.8861 51.6765 87 51.2373 87C50.7981 87 50.3667 86.8862 49.9864 86.6699C49.606 86.4536 49.2902 86.1425 49.0705 85.7679C48.8509 85.3932 48.7352 84.9683 48.7351 84.5356V78.2185C48.7351 77.7846 48.8514 77.3584 49.0721 76.9829C49.2929 76.6075 49.6103 76.2961 49.9924 76.0802L62.386 69.0791C62.7681 68.8632 63.0855 68.5518 63.3063 68.1764C63.5271 67.8009 63.6433 67.3747 63.6433 66.9408ZM26.5295 52.7475V66.9408C26.5295 67.3747 26.6458 67.8009 26.8665 68.1764C27.0873 68.5518 27.4048 68.8632 27.7868 69.0791L40.1804 76.0802C40.5625 76.2961 40.88 76.6075 41.1007 76.9829C41.3215 77.3584 41.4377 77.7846 41.4377 78.2185V84.5356C41.4376 84.9683 41.322 85.3932 41.1023 85.7679C40.8827 86.1425 40.5668 86.4536 40.1865 86.6699C39.8061 86.8862 39.3747 87 38.9355 87C38.4964 87 38.0649 86.8861 37.6846 86.6698L17.251 75.0368C16.8707 74.8205 16.5549 74.5094 16.3353 74.1348C16.1157 73.7602 16.0001 73.3352 16 72.9026V49.6213C15.9995 49.1884 16.1148 48.763 16.3342 48.3879C16.5536 48.0129 16.8694 47.7013 17.2499 47.4847C17.6303 47.268 18.062 47.1539 18.5014 47.1538C18.9408 47.1537 19.3725 47.2676 19.7531 47.484L25.2785 50.6103C25.6593 50.8268 25.9754 51.1384 26.195 51.5136C26.4146 51.8888 26.53 52.3144 26.5295 52.7475ZM50.4444 50.642C50.4444 51.5191 50.2175 52.3432 49.819 53.0588L51.9663 57.3532C54.3437 54.9255 54.587 52.4853 54.2982 50.6084C54.1054 49.355 54.9652 48.1825 56.2187 47.9897C57.4721 47.7968 58.6446 48.6566 58.8374 49.9101C59.3108 52.9867 58.7977 57.0176 55.1298 60.6854C54.792 61.0233 54.4497 61.3374 54.1043 61.6293L56.3256 66.0718C56.8927 67.2062 56.433 68.5855 55.2986 69.1526C54.1643 69.7198 52.785 69.26 52.2178 68.1257L50.175 64.0401C48.0957 64.9045 46.0619 65.1852 44.3209 65.1852C42.7671 65.1852 41.4393 64.9638 40.4941 64.7414L40.4214 64.7241L38.7206 68.1257C38.1535 69.26 36.7741 69.7198 35.6398 69.1526C34.5055 68.5855 34.0457 67.2062 34.6129 66.0718L41.1193 53.059C40.7208 52.3434 40.4938 51.5192 40.4938 50.642V47.0392C40.4938 46.2812 41.1083 45.6667 41.8663 45.6667H42.7901V43.9358C42.7901 43.5131 43.1328 43.1704 43.5555 43.1704H47.3827C47.8054 43.1704 48.1481 43.5131 48.1481 43.9358V45.6667H49.0719C49.8299 45.6667 50.4444 46.2812 50.4444 47.0392V50.642ZM48.1138 59.9176L45.9521 55.5942C45.7931 55.6095 45.632 55.6173 45.4691 55.6173C45.3063 55.6173 45.1452 55.6095 44.9864 55.5942L42.5524 60.4623C43.0728 60.5387 43.6707 60.5926 44.3209 60.5926C45.4693 60.5926 46.7727 60.4269 48.1138 59.9176ZM45.4691 51.7901C46.526 51.7901 47.3827 50.9334 47.3827 49.8766C47.3827 48.8197 46.526 47.963 45.4691 47.963C44.4123 47.963 43.5555 48.8197 43.5555 49.8766C43.5555 50.9334 44.4123 51.7901 45.4691 51.7901Z" fill="white"/>
<path d="M258.644 59.7182C255.143 59.7182 252.412 58.6216 250.45 56.4283C248.489 54.2139 247.508 51.1244 247.508 47.1596V35.0754H242.795V26.3128H247.508V14.1654H259.055V26.3128H265.824V35.0754H259.055V46.3055C259.055 47.3177 259.255 48.0875 259.656 48.6147C260.078 49.142 260.689 49.4056 261.491 49.4056C262.418 49.4056 263.336 49.0681 264.243 48.3933L267.121 57.662C265.898 58.2947 264.538 58.7903 263.041 59.1488C261.543 59.5284 260.078 59.7182 258.644 59.7182Z" fill="#F7F7F7"/>
<path d="M379.538 58.7999C376.565 58.7999 373.865 58.0618 371.44 56.5855C369.015 55.0882 367.085 53.0425 365.651 50.4485C364.217 47.8335 363.5 44.8599 363.5 41.5278C363.5 38.3011 364.185 35.4013 365.556 32.8285C366.927 30.2345 368.814 28.1783 371.219 26.6598C373.623 25.1414 376.396 24.3822 379.538 24.3822C381.584 24.3822 383.524 24.7302 385.359 25.4261C387.215 26.1221 388.786 27.1027 390.072 28.3681V25.3945H401.619V57.7876H390.072V54.4344C388.554 55.8685 386.909 56.9546 385.138 57.6927C383.387 58.4308 381.521 58.7999 379.538 58.7999ZM383.018 49.025C384.452 49.025 385.718 48.7087 386.814 48.076C387.911 47.4222 388.765 46.5365 389.377 45.4188C389.988 44.301 390.294 43.0251 390.294 41.591C390.294 40.157 389.978 38.8811 389.345 37.7633C388.733 36.6456 387.879 35.7704 386.783 35.1377C385.686 34.484 384.431 34.1571 383.018 34.1571C381.626 34.1571 380.371 34.484 379.254 35.1377C378.157 35.7704 377.282 36.6456 376.628 37.7633C375.995 38.8811 375.679 40.157 375.679 41.591C375.679 43.004 375.995 44.2799 376.628 45.4188C377.261 46.5365 378.125 47.4222 379.222 48.076C380.34 48.7087 381.605 49.025 383.018 49.025Z" fill="#F7F7F7"/>
<path d="M357.106 26.0502V58.7997H346.061V35.0402H340.731V26.0502H357.106Z" fill="#F7F7F7"/>
<path d="M336.557 38.1873C335.915 37.8448 335.23 37.588 334.502 37.4167C333.817 37.2027 333.004 37.0956 332.062 37.0956C330.564 37.0956 329.237 37.5452 328.081 38.4442C326.925 39.3432 325.983 40.5204 325.255 41.976V58.8002H314.21V26.0507H325.255V31.8943C326.283 30.1391 327.417 28.6193 328.659 27.335C329.943 26.0507 331.613 25.4086 333.668 25.4086C334.781 25.4086 335.744 25.6012 336.557 25.9865V38.1873Z" fill="#F7F7F7"/>
<path d="M213.791 25.8402L221.047 43.2424L228.046 25.8402H240.376L216.873 74.0013H204.544L214.882 55.7643L201.076 25.8402H213.791Z" fill="#F7F7F7"/>
<path d="M196.26 12.3549V58.5895H185.215V12.3549H196.26Z" fill="#F7F7F7"/>
<path d="M124.43 15.5658C126.613 15.5658 128.732 15.9297 130.787 16.6574C132.885 17.3852 134.768 18.4555 136.438 19.8682C138.107 21.2809 139.434 22.9933 140.419 25.0054C141.447 27.0174 141.96 29.2863 141.96 31.8121C141.96 35.1085 141.19 37.9553 139.649 40.3527C138.107 42.7072 136.095 44.5052 133.612 45.7467C131.129 46.9882 128.497 47.6089 125.714 47.6089C124.087 47.6089 122.632 47.4591 121.347 47.1594C120.063 46.817 118.95 46.3889 118.008 45.8751V58.5897H106V15.5658H124.43ZM118.008 26.8034V36.7567C118.736 37.0135 119.506 37.2276 120.32 37.3988C121.176 37.57 122.075 37.6557 123.017 37.6557C124.901 37.6557 126.463 37.0777 127.705 35.9219C128.989 34.7232 129.631 33.3533 129.631 31.8121C129.631 30.0569 128.989 28.794 127.705 28.0235C126.463 27.2101 124.901 26.8034 123.017 26.8034H118.008Z" fill="#F7F7F7"/>
<rect x="343.314" y="11.7445" width="11.465" height="11.465" transform="rotate(-21.7288 343.314 11.7445)" fill="#F7F7F7"/>
<path fill-rule="evenodd" clip-rule="evenodd" d="M289.121 25.0874C291.39 25.0874 293.595 25.5155 295.735 26.3717C297.876 27.2279 299.802 28.4266 301.515 29.9677C303.227 31.5089 304.576 33.3497 305.56 35.4902C306.588 37.5879 307.101 39.8996 307.101 42.4254C307.101 44.9512 306.588 47.2843 305.56 49.4248C304.576 51.5225 303.227 53.3419 301.515 54.883C299.802 56.4242 297.876 57.6229 295.735 58.4791C293.595 59.3353 291.39 59.7634 289.121 59.7634C286.852 59.7634 284.648 59.3353 282.507 58.4791C280.367 57.6229 278.44 56.4242 276.728 54.883C275.015 53.3419 273.645 51.5225 272.618 49.4248C271.633 47.2843 271.141 44.9512 271.141 42.4254C271.141 39.8996 271.633 37.5879 272.618 35.4902C273.645 33.3497 275.015 31.5089 276.728 29.9677C278.44 28.4266 280.367 27.2279 282.507 26.3717C284.648 25.5155 286.852 25.0874 289.121 25.0874ZM285.91 34.7335L292.796 34.8403C293.091 34.8447 293.38 34.9269 293.634 35.0784C293.887 35.23 294.097 35.4456 294.241 35.7037L297.598 41.7277C297.742 41.9858 297.815 42.2771 297.811 42.5724C297.806 42.8678 297.724 43.1567 297.572 43.4102L294.042 49.3238C293.89 49.5775 293.675 49.7868 293.417 49.9307C293.158 50.0746 292.867 50.148 292.571 50.1435L285.685 50.0362C285.39 50.0317 285.101 49.9496 284.847 49.7982C284.594 49.6467 284.384 49.4312 284.24 49.1733L280.883 43.1493C280.739 42.8912 280.665 42.5998 280.67 42.3043C280.674 42.0089 280.757 41.7198 280.908 41.4662L284.439 35.5532C284.591 35.2995 284.806 35.0902 285.064 34.9463C285.323 34.8025 285.614 34.7291 285.91 34.7335Z" fill="white"/>
<path fill-rule="evenodd" clip-rule="evenodd" d="M162.356 25.0874C164.625 25.0874 166.83 25.5155 168.97 26.3717C171.111 27.2279 173.037 28.4266 174.75 29.9677C176.462 31.5089 177.81 33.3497 178.795 35.4902C179.823 37.5879 180.336 39.8996 180.336 42.4254C180.336 44.9512 179.823 47.2843 178.795 49.4248C177.81 51.5225 176.462 53.3419 174.75 54.883C173.037 56.4242 171.111 57.6229 168.97 58.4791C166.83 59.3353 164.625 59.7634 162.356 59.7634C160.087 59.7634 157.882 59.3353 155.742 58.4791C153.601 57.6229 151.675 56.4242 149.963 54.883C148.25 53.3419 146.88 51.5225 145.853 49.4248C144.868 47.2843 144.376 44.9512 144.376 42.4254C144.376 39.8996 144.868 37.5879 145.853 35.4902C146.88 33.3497 148.25 31.5089 149.963 29.9677C151.675 28.4266 153.601 27.2279 155.742 26.3717C157.882 25.5155 160.087 25.0874 162.356 25.0874ZM155.663 37.5335L161.629 34.0925C161.885 33.9447 162.175 33.8669 162.471 33.8669C162.766 33.8669 163.056 33.9446 163.312 34.0923L169.285 37.5406C169.541 37.6884 169.753 37.9009 169.9 38.1568C170.048 38.4126 170.126 38.7028 170.126 38.9982L170.129 45.8854C170.129 46.1809 170.051 46.4713 169.904 46.7272C169.756 46.9832 169.543 47.1957 169.287 47.3435L163.321 50.7842C163.065 50.9319 162.775 51.0097 162.48 51.0097C162.184 51.0098 161.894 50.9322 161.638 50.7847L155.666 47.3364C155.41 47.1886 155.197 46.9761 155.05 46.7202C154.902 46.4643 154.824 46.174 154.824 45.8785L154.821 38.9916C154.821 38.6961 154.899 38.4057 155.047 38.1498C155.195 37.8939 155.407 37.6813 155.663 37.5335Z" fill="white"/>
<path d="M106.99 86.4412C106.99 84.3612 107.44 82.5112 108.34 80.8912C109.24 79.2512 110.49 77.9812 112.09 77.0812C113.71 76.1612 115.54 75.7012 117.58 75.7012C120.08 75.7012 122.22 76.3612 124 77.6812C125.78 79.0012 126.97 80.8012 127.57 83.0812H121.93C121.51 82.2012 120.91 81.5312 120.13 81.0712C119.37 80.6112 118.5 80.3812 117.52 80.3812C115.94 80.3812 114.66 80.9312 113.68 82.0312C112.7 83.1312 112.21 84.6012 112.21 86.4412C112.21 88.2812 112.7 89.7512 113.68 90.8512C114.66 91.9512 115.94 92.5012 117.52 92.5012C118.5 92.5012 119.37 92.2712 120.13 91.8112C120.91 91.3512 121.51 90.6812 121.93 89.8012H127.57C126.97 92.0812 125.78 93.8812 124 95.2012C122.22 96.5012 120.08 97.1512 117.58 97.1512C115.54 97.1512 113.71 96.7012 112.09 95.8012C110.49 94.8812 109.24 93.6112 108.34 91.9912C107.44 90.3712 106.99 88.5212 106.99 86.4412ZM135.842 83.0512C136.442 82.1312 137.192 81.4112 138.092 80.8912C138.992 80.3512 139.992 80.0812 141.092 80.0812V85.5112H139.682C138.402 85.5112 137.442 85.7912 136.802 86.3512C136.162 86.8912 135.842 87.8512 135.842 89.2312V97.0012H130.712V80.2612H135.842V83.0512ZM159.324 88.3612C159.324 88.8412 159.294 89.3412 159.234 89.8612H147.624C147.704 90.9012 148.034 91.7012 148.614 92.2612C149.214 92.8012 149.944 93.0712 150.804 93.0712C152.084 93.0712 152.974 92.5312 153.474 91.4512H158.934C158.654 92.5512 158.144 93.5412 157.404 94.4212C156.684 95.3012 155.774 95.9912 154.674 96.4912C153.574 96.9912 152.344 97.2412 150.984 97.2412C149.344 97.2412 147.884 96.8912 146.604 96.1912C145.324 95.4912 144.324 94.4912 143.604 93.1912C142.884 91.8912 142.524 90.3712 142.524 88.6312C142.524 86.8912 142.874 85.3712 143.574 84.0712C144.294 82.7712 145.294 81.7712 146.574 81.0712C147.854 80.3712 149.324 80.0212 150.984 80.0212C152.604 80.0212 154.044 80.3612 155.304 81.0412C156.564 81.7212 157.544 82.6912 158.244 83.9512C158.964 85.2112 159.324 86.6812 159.324 88.3612ZM154.074 87.0112C154.074 86.1312 153.774 85.4312 153.174 84.9112C152.574 84.3912 151.824 84.1312 150.924 84.1312C150.064 84.1312 149.334 84.3812 148.734 84.8812C148.154 85.3812 147.794 86.0912 147.654 87.0112H154.074ZM161.01 88.6012C161.01 86.8812 161.33 85.3712 161.97 84.0712C162.63 82.7712 163.52 81.7712 164.64 81.0712C165.76 80.3712 167.01 80.0212 168.39 80.0212C169.57 80.0212 170.6 80.2612 171.48 80.7412C172.38 81.2212 173.07 81.8512 173.55 82.6312V80.2612H178.68V97.0012H173.55V94.6312C173.05 95.4112 172.35 96.0412 171.45 96.5212C170.57 97.0012 169.54 97.2412 168.36 97.2412C167 97.2412 165.76 96.8912 164.64 96.1912C163.52 95.4712 162.63 94.4612 161.97 93.1612C161.33 91.8412 161.01 90.3212 161.01 88.6012ZM173.55 88.6312C173.55 87.3512 173.19 86.3412 172.47 85.6012C171.77 84.8612 170.91 84.4912 169.89 84.4912C168.87 84.4912 168 84.8612 167.28 85.6012C166.58 86.3212 166.23 87.3212 166.23 88.6012C166.23 89.8812 166.58 90.9012 167.28 91.6612C168 92.4012 168.87 92.7712 169.89 92.7712C170.91 92.7712 171.77 92.4012 172.47 91.6612C173.19 90.9212 173.55 89.9112 173.55 88.6312ZM191.721 92.6512V97.0012H189.111C187.251 97.0012 185.801 96.5512 184.761 95.6512C183.721 94.7312 183.201 93.2412 183.201 91.1812V84.5212H181.161V80.2612H183.201V76.1812H188.331V80.2612H191.691V84.5212H188.331V91.2412C188.331 91.7412 188.451 92.1012 188.691 92.3212C188.931 92.5412 189.331 92.6512 189.891 92.6512H191.721ZM202.199 97.2412C200.559 97.2412 199.079 96.8912 197.759 96.1912C196.459 95.4912 195.429 94.4912 194.669 93.1912C193.929 91.8912 193.559 90.3712 193.559 88.6312C193.559 86.9112 193.939 85.4012 194.699 84.1012C195.459 82.7812 196.499 81.7712 197.819 81.0712C199.139 80.3712 200.619 80.0212 202.259 80.0212C203.899 80.0212 205.379 80.3712 206.699 81.0712C208.019 81.7712 209.059 82.7812 209.819 84.1012C210.579 85.4012 210.959 86.9112 210.959 88.6312C210.959 90.3512 210.569 91.8712 209.789 93.1912C209.029 94.4912 207.979 95.4912 206.639 96.1912C205.319 96.8912 203.839 97.2412 202.199 97.2412ZM202.199 92.8012C203.179 92.8012 204.009 92.4412 204.689 91.7212C205.389 91.0012 205.739 89.9712 205.739 88.6312C205.739 87.2912 205.399 86.2612 204.719 85.5412C204.059 84.8212 203.239 84.4612 202.259 84.4612C201.259 84.4612 200.429 84.8212 199.769 85.5412C199.109 86.2412 198.779 87.2712 198.779 88.6312C198.779 89.9712 199.099 91.0012 199.739 91.7212C200.399 92.4412 201.219 92.8012 202.199 92.8012ZM218.81 83.0512C219.41 82.1312 220.16 81.4112 221.06 80.8912C221.96 80.3512 222.96 80.0812 224.06 80.0812V85.5112H222.65C221.37 85.5112 220.41 85.7912 219.77 86.3512C219.13 86.8912 218.81 87.8512 218.81 89.2312V97.0012H213.68V80.2612H218.81V83.0512Z" fill="white"/>
</svg>
